<svg width="24" height="24" viewBox="0 0 24 24" fill="none" xmlns="http://www.w3.org/2000/svg">
<g id="Frame" clip-path="url(#clip0_7_227)">
<path id="Vector" d="M4 18.9998C4 19.5302 4.21071 20.0389 4.58579 20.414C4.96086 20.789 5.46957 20.9998 6 20.9998C6.53043 20.9998 7.03914 20.789 7.41421 20.414C7.78929 20.0389 8 19.5302 8 18.9998C8 18.4693 7.78929 17.9606 7.41421 17.5855C7.03914 17.2105 6.53043 16.9998 6 16.9998C5.46957 16.9998 4.96086 17.2105 4.58579 17.5855C4.21071 17.9606 4 18.4693 4 18.9998Z" stroke="#89898B" stroke-width="1.5" stroke-linecap="round" stroke-linejoin="round"/>
<path id="Vector_2" d="M12 16.9998H6V2.99976H4" stroke="#89898B" stroke-width="1.5" stroke-linecap="round" stroke-linejoin="round"/>
<path id="Vector_3" d="M6 4.99976L20 5.99976L19.284 11.0108M14 12.9998H6" stroke="#89898B" stroke-width="1.5" stroke-linecap="round" stroke-linejoin="round"/>
<path id="Vector_4" d="M21.121 20.1208C21.5406 19.7013 21.8265 19.1667 21.9423 18.5847C22.0581 18.0028 21.9988 17.3995 21.7717 16.8513C21.5447 16.3031 21.1602 15.8345 20.6668 15.5048C20.1734 15.1751 19.5934 14.9991 19 14.9991C18.4066 14.9991 17.8266 15.1751 17.3332 15.5048C16.8398 15.8345 16.4553 16.3031 16.2283 16.8513C16.0012 17.3995 15.9419 18.0028 16.0577 18.5847C16.1735 19.1667 16.4594 19.7013 16.879 20.1208C17.297 20.5398 18.004 21.1658 19 21.9998C20.051 21.1098 20.759 20.4838 21.121 20.1208Z" stroke="#89898B" stroke-width="1.5" stroke-linecap="round" stroke-linejoin="round"/>
<path id="Vector_5" d="M19 17.9998V18.0098" stroke="#89898B" stroke-width="1.5" stroke-linecap="round" stroke-linejoin="round"/>
</g>
<defs>
<clipPath id="clip0_7_227">
<rect width="24" height="24" fill="white" transform="translate(0 -0.000244141)"/>
</clipPath>
</defs>
</svg>
