<svg width="175" height="24" viewBox="0 0 175 24" fill="none" xmlns="http://www.w3.org/2000/svg">
<g id="Social">
<g id="1">
<g id="logo-twitter 2">
<g id="Group">
<path id="Vector" d="M19.8879 6.65563C19.1421 6.98551 18.3548 7.19169 17.5262 7.31539C18.3548 6.82057 19.0178 6.0371 19.3078 5.0887C18.5206 5.54228 17.6505 5.87216 16.6975 6.07834C15.9517 5.29487 14.8745 4.80005 13.7143 4.80005C11.4769 4.80005 9.6539 6.6144 9.6539 8.84109C9.6539 9.17097 9.69533 9.45962 9.7782 9.74827C6.42212 9.58333 3.39751 7.97516 1.36729 5.50105C1.03583 6.11957 0.828661 6.77934 0.828661 7.52157C0.828661 8.92356 1.53302 10.1606 2.65171 10.9029C1.98879 10.8616 1.36729 10.6967 0.787228 10.408V10.4493C0.787228 12.4286 2.19595 14.078 4.06044 14.4491C3.72897 14.5315 3.35608 14.5728 2.98318 14.5728C2.73458 14.5728 2.44455 14.5315 2.19595 14.4903C2.73458 16.0985 4.22617 17.2943 6.00779 17.2943C4.59907 18.3664 2.85888 19.0262 0.95296 19.0262C0.621495 19.0262 0.290031 19.0262 0 18.9849C1.82305 20.1395 3.93614 20.7993 6.25639 20.7993C13.7558 20.7993 17.8576 14.614 17.8576 9.25345C17.8576 9.0885 17.8576 8.88233 17.8576 8.71739C18.6449 8.18133 19.3492 7.48033 19.8879 6.65563Z" fill="#131318"/>
</g>
</g>
</g>
<g id="2">
<g id="logo-fb-simple 2">
<g id="Group_2">
<path id="Vector_2" d="M55.2142 23.1658V13.3286H51.8879V9.49479H55.2142V6.6675C55.2142 3.38645 57.2278 1.59985 60.1687 1.59985C61.5775 1.59985 62.7882 1.70424 63.1411 1.75089V5.17978L61.1014 5.18071C59.5019 5.18071 59.1922 5.93712 59.1922 7.0471V9.49479H63.0068L62.5101 13.3286H59.1922V23.1658H55.2142Z" fill="#131318"/>
</g>
</g>
</g>
<g id="3">
<g id="logo-instagram 1">
<g id="Group_3">
<path id="Vector_3" d="M107.198 2.16218C110.417 2.16218 110.799 2.17418 112.07 2.23189C112.835 2.24121 113.592 2.38094 114.309 2.64502C114.83 2.84463 115.302 3.15042 115.696 3.54269C116.09 3.93496 116.397 4.40502 116.598 4.92262C116.863 5.63637 117.004 6.39011 117.013 7.15109C117.07 8.41674 117.083 8.79615 117.083 12C117.083 15.2038 117.071 15.5833 117.013 16.8489C117.004 17.6099 116.863 18.3636 116.598 19.0774C116.397 19.595 116.09 20.065 115.696 20.4573C115.302 20.8496 114.83 21.1554 114.309 21.355C113.592 21.6191 112.835 21.7588 112.07 21.7681C110.799 21.8252 110.418 21.8378 107.198 21.8378C103.978 21.8378 103.597 21.8258 102.326 21.7681C101.561 21.7588 100.804 21.6191 100.087 21.355C99.5667 21.1554 99.0943 20.8496 98.7002 20.4573C98.306 20.065 97.9988 19.595 97.7982 19.0774C97.5329 18.3636 97.3925 17.6099 97.3831 16.8489C97.3257 15.5833 97.3131 15.2038 97.3131 12C97.3131 8.79615 97.3251 8.41674 97.3831 7.15109C97.3925 6.39011 97.5329 5.63637 97.7982 4.92262C97.9988 4.40502 98.306 3.93496 98.7002 3.54269C99.0943 3.15042 99.5667 2.84463 100.087 2.64502C100.804 2.38094 101.561 2.24121 102.326 2.23189C103.598 2.17475 103.979 2.16218 107.198 2.16218ZM107.198 0C103.925 0 103.513 0.0137136 102.227 0.0719965C101.226 0.0918058 100.236 0.280376 99.299 0.629684C98.4949 0.931193 97.7666 1.40368 97.1649 2.01419C96.5509 2.61323 96.0758 3.33847 95.7726 4.13923C95.4216 5.0721 95.2322 6.05745 95.2123 7.05338C95.1549 8.33217 95.1411 8.74244 95.1411 11.9994C95.1411 15.2564 95.1549 15.6667 95.2134 16.9466C95.2333 17.9425 95.4228 18.9279 95.7738 19.8608C96.0766 20.6614 96.5514 21.3867 97.1649 21.9858C97.767 22.5965 98.4957 23.069 99.3002 23.3703C100.238 23.7196 101.228 23.9082 102.228 23.928C103.514 23.9851 103.925 24 107.199 24C110.474 24 110.884 23.9863 112.17 23.928C113.171 23.9082 114.161 23.7196 115.098 23.3703C115.899 23.0614 116.626 22.5896 117.233 21.9851C117.84 21.3806 118.314 20.6567 118.624 19.8596C118.975 18.9268 119.164 17.9414 119.184 16.9455C119.241 15.6667 119.255 15.2564 119.255 11.9994C119.255 8.74244 119.241 8.33217 119.183 7.05224C119.163 6.05631 118.973 5.07096 118.622 4.13809C118.32 3.33743 117.845 2.6122 117.231 2.01305C116.629 1.4024 115.901 0.929903 115.096 0.628541C114.159 0.279233 113.169 0.0906631 112.168 0.0708538C110.883 0.0137137 110.471 0 107.198 0Z" fill="#131318"/>
<path id="Vector_4" d="M107.196 5.83789C105.971 5.83789 104.774 6.19929 103.756 6.87637C102.738 7.55346 101.944 8.51583 101.476 9.64179C101.007 10.7677 100.884 12.0067 101.123 13.202C101.362 14.3973 101.952 15.4953 102.818 16.3571C103.684 17.2188 104.787 17.8057 105.988 18.0435C107.189 18.2812 108.434 18.1592 109.565 17.6928C110.697 17.2264 111.664 16.4366 112.344 15.4233C113.024 14.41 113.387 13.2186 113.387 11.9999C113.387 10.3656 112.735 8.7983 111.574 7.6427C110.413 6.4871 108.838 5.83789 107.196 5.83789ZM107.196 15.9997C106.401 15.9997 105.624 15.7651 104.963 15.3256C104.302 14.8861 103.787 14.2614 103.483 13.5305C103.179 12.7997 103.099 11.9954 103.254 11.2196C103.409 10.4437 103.792 9.73097 104.354 9.17159C104.916 8.61221 105.632 8.23126 106.412 8.07693C107.191 7.9226 108 8.0018 108.734 8.30454C109.468 8.60728 110.096 9.11994 110.538 9.77771C110.979 10.4355 111.215 11.2088 111.215 11.9999C111.215 13.0607 110.791 14.0781 110.038 14.8282C109.284 15.5783 108.262 15.9997 107.196 15.9997Z" fill="#131318"/>
<path id="Vector_5" d="M113.633 7.03416C114.432 7.03416 115.08 6.38948 115.08 5.59423C115.08 4.79898 114.432 4.1543 113.633 4.1543C112.834 4.1543 112.186 4.79898 112.186 5.59423C112.186 6.38948 112.834 7.03416 113.633 7.03416Z" fill="#131318"/>
</g>
</g>
</g>
<g id="4">
<g id="logo-github 1">
<g id="Group_4">
<path id="Vector_6" fill-rule="evenodd" clip-rule="evenodd" d="M162.788 0C156.397 0 151.255 5.11733 151.255 11.4781C151.255 16.5476 154.571 20.8519 159.136 22.3823C159.713 22.478 159.905 22.1432 159.905 21.8084C159.905 21.5215 159.905 20.8041 159.905 19.8476C156.685 20.565 156.013 18.3172 156.013 18.3172C155.484 16.9781 154.715 16.6433 154.715 16.6433C153.658 15.9259 154.811 15.9259 154.811 15.9259C155.964 16.0216 156.589 17.1215 156.589 17.1215C157.598 18.8911 159.28 18.365 159.953 18.0781C160.049 17.3128 160.337 16.8346 160.674 16.5476C158.127 16.2607 155.436 15.2563 155.436 10.8564C155.436 9.61293 155.868 8.56077 156.637 7.79556C156.541 7.50861 156.109 6.3608 156.733 4.73473C156.733 4.73473 157.694 4.44777 159.905 5.93037C160.818 5.69124 161.827 5.54776 162.788 5.54776C163.749 5.54776 164.759 5.69124 165.672 5.93037C167.882 4.44777 168.843 4.73473 168.843 4.73473C169.468 6.31297 169.083 7.46078 168.939 7.79556C169.66 8.60859 170.141 9.61293 170.141 10.8564C170.141 15.2563 167.45 16.2129 164.855 16.4998C165.287 16.8346 165.624 17.552 165.624 18.6041C165.624 20.1345 165.624 21.378 165.624 21.7606C165.624 22.0476 165.816 22.4302 166.44 22.3345C171.006 20.8519 174.321 16.5476 174.321 11.4781C174.321 5.11733 169.18 0 162.788 0Z" fill="#131318"/>
</g>
</g>
</g>
</g>
</svg>
